<?xml version="1.0" encoding="utf-8"?>
<!-- Generator: Adobe Illustrator 27.6.1, SVG Export Plug-In . SVG Version: 6.00 Build 0)  -->
<svg version="1.1" id="Layer_1" xmlns="http://www.w3.org/2000/svg" xmlns:xlink="http://www.w3.org/1999/xlink" x="0px" y="0px"
	 viewBox="0 0 32 32" style="enable-background:new 0 0 32 32;" xml:space="preserve">
<style type="text/css">
	.st0{fill:#CBDB2A;}
</style>
<path d="M16,32L16,32C7.16,32,0,24.84,0,16v0C0,7.16,7.16,0,16,0h0c8.84,0,16,7.16,16,16v0C32,24.84,24.84,32,16,32z"/>
<g>
	<polygon class="st0" points="20.78,5.8 23.71,5.8 23.71,8.81 17.89,8.81 17.89,23.19 23.71,23.19 23.71,26.2 20.8,26.2 20.8,17.53 
		14.98,17.53 14.98,14.53 20.8,14.53 	"/>
	<polygon class="st0" points="12.08,5.8 15.02,5.8 15.02,8.81 9.2,8.81 9.2,23.19 15.02,23.19 15.02,26.2 12.11,26.2 12.11,17.53 
		6.29,17.53 6.29,14.53 12.11,14.53 	"/>
</g>
</svg>
